<mxfile host="app.diagrams.net" agent="Mozilla/5.0 (Windows NT 10.0; Win64; x64) AppleWebKit/537.36 (KHTML, like Gecko) Chrome/130.0.0.0 Safari/537.36" version="24.8.6">
  <diagram name="Page-1" id="JPkhpKIVKym1wPMRTdA2">
    <mxGraphModel dx="1417" dy="1524" grid="0" gridSize="10" guides="1" tooltips="1" connect="1" arrows="1" fold="1" page="0" pageScale="1" pageWidth="850" pageHeight="1100" math="0" shadow="0">
      <root>
        <mxCell id="0" />
        <mxCell id="1" parent="0" />
        <mxCell id="hP8luSfTVBdW48-GXIDN-1" value="Studi Pustaka" style="rounded=1;whiteSpace=wrap;html=1;absoluteArcSize=1;arcSize=14;strokeWidth=2;" vertex="1" parent="1">
          <mxGeometry x="-63" y="-34" width="128" height="58" as="geometry" />
        </mxCell>
        <mxCell id="hP8luSfTVBdW48-GXIDN-2" value="Pengumpulan Data" style="text;html=1;align=center;verticalAlign=middle;whiteSpace=wrap;rounded=0;fontSize=16;" vertex="1" parent="1">
          <mxGeometry x="-90" y="-65" width="182" height="30" as="geometry" />
        </mxCell>
        <mxCell id="hP8luSfTVBdW48-GXIDN-3" value="&lt;i&gt;X (Twitter)&lt;/i&gt;" style="strokeWidth=2;html=1;shape=mxgraph.flowchart.document2;whiteSpace=wrap;size=0.25;" vertex="1" parent="1">
          <mxGeometry x="-63" y="63" width="127" height="62" as="geometry" />
        </mxCell>
        <mxCell id="hP8luSfTVBdW48-GXIDN-4" style="edgeStyle=none;curved=1;rounded=0;orthogonalLoop=1;jettySize=auto;html=1;exitX=0.5;exitY=1;exitDx=0;exitDy=0;entryX=0.5;entryY=0;entryDx=0;entryDy=0;entryPerimeter=0;fontSize=12;startSize=8;endSize=8;" edge="1" parent="1" source="hP8luSfTVBdW48-GXIDN-1" target="hP8luSfTVBdW48-GXIDN-3">
          <mxGeometry relative="1" as="geometry" />
        </mxCell>
        <mxCell id="hP8luSfTVBdW48-GXIDN-5" value="&lt;i&gt;Web Scraping&lt;/i&gt;" style="rounded=1;whiteSpace=wrap;html=1;absoluteArcSize=1;arcSize=14;strokeWidth=2;" vertex="1" parent="1">
          <mxGeometry x="-63" y="169" width="128" height="58" as="geometry" />
        </mxCell>
        <mxCell id="hP8luSfTVBdW48-GXIDN-6" value="" style="endArrow=classic;html=1;rounded=0;fontSize=12;startSize=8;endSize=8;curved=1;exitX=0.5;exitY=0.865;exitDx=0;exitDy=0;exitPerimeter=0;entryX=0.5;entryY=0;entryDx=0;entryDy=0;" edge="1" parent="1" source="hP8luSfTVBdW48-GXIDN-3" target="hP8luSfTVBdW48-GXIDN-5">
          <mxGeometry width="50" height="50" relative="1" as="geometry">
            <mxPoint x="175" y="225" as="sourcePoint" />
            <mxPoint x="225" y="175" as="targetPoint" />
          </mxGeometry>
        </mxCell>
        <mxCell id="hP8luSfTVBdW48-GXIDN-7" value="&lt;i&gt;Text Cleaning&lt;/i&gt;" style="rounded=1;whiteSpace=wrap;html=1;absoluteArcSize=1;arcSize=14;strokeWidth=2;" vertex="1" parent="1">
          <mxGeometry x="189" y="-34" width="128" height="58" as="geometry" />
        </mxCell>
        <mxCell id="hP8luSfTVBdW48-GXIDN-8" value="&lt;i&gt;Preprocessing&lt;/i&gt;" style="text;html=1;align=center;verticalAlign=middle;whiteSpace=wrap;rounded=0;fontSize=16;" vertex="1" parent="1">
          <mxGeometry x="162" y="-65" width="182" height="30" as="geometry" />
        </mxCell>
        <mxCell id="hP8luSfTVBdW48-GXIDN-10" style="edgeStyle=none;curved=1;rounded=0;orthogonalLoop=1;jettySize=auto;html=1;exitX=0.5;exitY=1;exitDx=0;exitDy=0;entryX=0.5;entryY=0;entryDx=0;entryDy=0;fontSize=12;startSize=8;endSize=8;" edge="1" parent="1" source="hP8luSfTVBdW48-GXIDN-7" target="hP8luSfTVBdW48-GXIDN-13">
          <mxGeometry relative="1" as="geometry">
            <mxPoint x="262" y="12" as="sourcePoint" />
            <mxPoint x="262" y="56.30600000000004" as="targetPoint" />
          </mxGeometry>
        </mxCell>
        <mxCell id="hP8luSfTVBdW48-GXIDN-11" value="&lt;i&gt;Negation Handling&lt;/i&gt;" style="rounded=1;whiteSpace=wrap;html=1;absoluteArcSize=1;arcSize=14;strokeWidth=2;" vertex="1" parent="1">
          <mxGeometry x="189" y="174" width="128" height="58" as="geometry" />
        </mxCell>
        <mxCell id="hP8luSfTVBdW48-GXIDN-12" value="" style="endArrow=classic;html=1;rounded=0;fontSize=12;startSize=8;endSize=8;curved=1;entryX=0.5;entryY=0;entryDx=0;entryDy=0;exitX=0.5;exitY=1;exitDx=0;exitDy=0;" edge="1" parent="1" source="hP8luSfTVBdW48-GXIDN-13" target="hP8luSfTVBdW48-GXIDN-11">
          <mxGeometry width="50" height="50" relative="1" as="geometry">
            <mxPoint x="253" y="134" as="sourcePoint" />
            <mxPoint x="477" y="175" as="targetPoint" />
          </mxGeometry>
        </mxCell>
        <mxCell id="hP8luSfTVBdW48-GXIDN-13" value="Pembakuan Kata" style="rounded=1;whiteSpace=wrap;html=1;absoluteArcSize=1;arcSize=14;strokeWidth=2;" vertex="1" parent="1">
          <mxGeometry x="189" y="70" width="128" height="58" as="geometry" />
        </mxCell>
        <mxCell id="hP8luSfTVBdW48-GXIDN-14" value="&lt;i&gt;Stopwords Removal&lt;/i&gt;" style="rounded=1;whiteSpace=wrap;html=1;absoluteArcSize=1;arcSize=14;strokeWidth=2;" vertex="1" parent="1">
          <mxGeometry x="189" y="278" width="128" height="58" as="geometry" />
        </mxCell>
        <mxCell id="hP8luSfTVBdW48-GXIDN-15" value="" style="endArrow=classic;html=1;rounded=0;fontSize=12;startSize=8;endSize=8;curved=1;exitX=0.5;exitY=1;exitDx=0;exitDy=0;" edge="1" parent="1" source="hP8luSfTVBdW48-GXIDN-11" target="hP8luSfTVBdW48-GXIDN-14">
          <mxGeometry width="50" height="50" relative="1" as="geometry">
            <mxPoint x="223" y="154" as="sourcePoint" />
            <mxPoint x="273" y="104" as="targetPoint" />
          </mxGeometry>
        </mxCell>
        <mxCell id="hP8luSfTVBdW48-GXIDN-16" value="&lt;i&gt;Stemming&lt;/i&gt;" style="rounded=1;whiteSpace=wrap;html=1;absoluteArcSize=1;arcSize=14;strokeWidth=2;" vertex="1" parent="1">
          <mxGeometry x="189" y="382" width="128" height="58" as="geometry" />
        </mxCell>
        <mxCell id="hP8luSfTVBdW48-GXIDN-17" value="" style="endArrow=classic;html=1;rounded=0;fontSize=12;startSize=8;endSize=8;curved=1;exitX=0.5;exitY=1;exitDx=0;exitDy=0;entryX=0.5;entryY=0;entryDx=0;entryDy=0;" edge="1" parent="1" source="hP8luSfTVBdW48-GXIDN-14" target="hP8luSfTVBdW48-GXIDN-16">
          <mxGeometry width="50" height="50" relative="1" as="geometry">
            <mxPoint x="223" y="292" as="sourcePoint" />
            <mxPoint x="273" y="242" as="targetPoint" />
          </mxGeometry>
        </mxCell>
        <mxCell id="hP8luSfTVBdW48-GXIDN-18" value="&lt;i&gt;Lexicon&lt;/i&gt;" style="rounded=1;whiteSpace=wrap;html=1;absoluteArcSize=1;arcSize=14;strokeWidth=2;" vertex="1" parent="1">
          <mxGeometry x="441" y="-34" width="128" height="58" as="geometry" />
        </mxCell>
        <mxCell id="hP8luSfTVBdW48-GXIDN-19" value="Pelabelan Data" style="text;html=1;align=center;verticalAlign=middle;whiteSpace=wrap;rounded=0;fontSize=16;" vertex="1" parent="1">
          <mxGeometry x="414" y="-65" width="182" height="30" as="geometry" />
        </mxCell>
        <mxCell id="hP8luSfTVBdW48-GXIDN-28" value="&lt;i&gt;TF-IDF&lt;/i&gt;" style="rounded=1;whiteSpace=wrap;html=1;absoluteArcSize=1;arcSize=14;strokeWidth=2;" vertex="1" parent="1">
          <mxGeometry x="441" y="94" width="128" height="58" as="geometry" />
        </mxCell>
        <mxCell id="hP8luSfTVBdW48-GXIDN-29" value="Ekstraksi Fitur" style="text;html=1;align=center;verticalAlign=middle;whiteSpace=wrap;rounded=0;fontSize=16;" vertex="1" parent="1">
          <mxGeometry x="414" y="63" width="182" height="30" as="geometry" />
        </mxCell>
        <mxCell id="hP8luSfTVBdW48-GXIDN-30" value="&lt;i&gt;SMOTE&lt;/i&gt;" style="rounded=1;whiteSpace=wrap;html=1;absoluteArcSize=1;arcSize=14;strokeWidth=2;" vertex="1" parent="1">
          <mxGeometry x="441" y="226.5" width="128" height="58" as="geometry" />
        </mxCell>
        <mxCell id="hP8luSfTVBdW48-GXIDN-31" value="&lt;i&gt;Oversampling&lt;/i&gt;" style="text;html=1;align=center;verticalAlign=middle;whiteSpace=wrap;rounded=0;fontSize=16;" vertex="1" parent="1">
          <mxGeometry x="414" y="195.5" width="182" height="30" as="geometry" />
        </mxCell>
        <mxCell id="hP8luSfTVBdW48-GXIDN-33" value="&lt;i&gt;K-Nearest Neighbor&lt;/i&gt;" style="rounded=1;whiteSpace=wrap;html=1;absoluteArcSize=1;arcSize=14;strokeWidth=2;" vertex="1" parent="1">
          <mxGeometry x="441" y="360.5" width="128" height="58" as="geometry" />
        </mxCell>
        <mxCell id="hP8luSfTVBdW48-GXIDN-34" value="&lt;i&gt;Classifier&lt;/i&gt;" style="text;html=1;align=center;verticalAlign=middle;whiteSpace=wrap;rounded=0;fontSize=16;" vertex="1" parent="1">
          <mxGeometry x="414" y="329.5" width="182" height="30" as="geometry" />
        </mxCell>
        <mxCell id="hP8luSfTVBdW48-GXIDN-36" value="&lt;i&gt;Confusion Matrix&lt;/i&gt;" style="rounded=1;whiteSpace=wrap;html=1;absoluteArcSize=1;arcSize=14;strokeWidth=2;" vertex="1" parent="1">
          <mxGeometry x="441" y="497" width="128" height="58" as="geometry" />
        </mxCell>
        <mxCell id="hP8luSfTVBdW48-GXIDN-37" value="Evaluasi" style="text;html=1;align=center;verticalAlign=middle;whiteSpace=wrap;rounded=0;fontSize=16;" vertex="1" parent="1">
          <mxGeometry x="414" y="466" width="182" height="30" as="geometry" />
        </mxCell>
        <mxCell id="hP8luSfTVBdW48-GXIDN-45" value="" style="endArrow=classic;html=1;rounded=0;fontSize=12;startSize=8;endSize=8;exitX=1;exitY=0.5;exitDx=0;exitDy=0;entryX=0;entryY=0.5;entryDx=0;entryDy=0;edgeStyle=orthogonalEdgeStyle;" edge="1" parent="1" source="hP8luSfTVBdW48-GXIDN-5" target="hP8luSfTVBdW48-GXIDN-7">
          <mxGeometry width="50" height="50" relative="1" as="geometry">
            <mxPoint x="174" y="157" as="sourcePoint" />
            <mxPoint x="224" y="107" as="targetPoint" />
          </mxGeometry>
        </mxCell>
        <mxCell id="hP8luSfTVBdW48-GXIDN-47" value="" style="endArrow=classic;html=1;rounded=0;fontSize=12;startSize=8;endSize=8;exitX=1;exitY=0.5;exitDx=0;exitDy=0;entryX=0;entryY=0.5;entryDx=0;entryDy=0;edgeStyle=orthogonalEdgeStyle;" edge="1" parent="1" source="hP8luSfTVBdW48-GXIDN-16" target="hP8luSfTVBdW48-GXIDN-18">
          <mxGeometry width="50" height="50" relative="1" as="geometry">
            <mxPoint x="205" y="474" as="sourcePoint" />
            <mxPoint x="255" y="424" as="targetPoint" />
          </mxGeometry>
        </mxCell>
        <mxCell id="hP8luSfTVBdW48-GXIDN-50" value="" style="endArrow=classic;html=1;rounded=0;fontSize=12;startSize=8;endSize=8;exitX=1;exitY=0.5;exitDx=0;exitDy=0;entryX=1;entryY=0.25;entryDx=0;entryDy=0;edgeStyle=orthogonalEdgeStyle;" edge="1" parent="1" source="hP8luSfTVBdW48-GXIDN-18" target="hP8luSfTVBdW48-GXIDN-28">
          <mxGeometry width="50" height="50" relative="1" as="geometry">
            <mxPoint x="594" y="166" as="sourcePoint" />
            <mxPoint x="355" y="224" as="targetPoint" />
            <Array as="points">
              <mxPoint x="628" y="-5" />
              <mxPoint x="628" y="109" />
            </Array>
          </mxGeometry>
        </mxCell>
        <mxCell id="hP8luSfTVBdW48-GXIDN-51" value="" style="endArrow=classic;html=1;rounded=0;fontSize=12;startSize=8;endSize=8;exitX=1;exitY=0.75;exitDx=0;exitDy=0;entryX=1;entryY=0.25;entryDx=0;entryDy=0;edgeStyle=orthogonalEdgeStyle;" edge="1" parent="1" source="hP8luSfTVBdW48-GXIDN-28" target="hP8luSfTVBdW48-GXIDN-30">
          <mxGeometry width="50" height="50" relative="1" as="geometry">
            <mxPoint x="305" y="274" as="sourcePoint" />
            <mxPoint x="355" y="224" as="targetPoint" />
            <Array as="points">
              <mxPoint x="628" y="138" />
              <mxPoint x="628" y="241" />
            </Array>
          </mxGeometry>
        </mxCell>
        <mxCell id="hP8luSfTVBdW48-GXIDN-52" value="" style="endArrow=classic;html=1;rounded=0;fontSize=12;startSize=8;endSize=8;exitX=1;exitY=0.75;exitDx=0;exitDy=0;entryX=1;entryY=0.25;entryDx=0;entryDy=0;edgeStyle=orthogonalEdgeStyle;" edge="1" parent="1" source="hP8luSfTVBdW48-GXIDN-30" target="hP8luSfTVBdW48-GXIDN-33">
          <mxGeometry width="50" height="50" relative="1" as="geometry">
            <mxPoint x="305" y="274" as="sourcePoint" />
            <mxPoint x="355" y="224" as="targetPoint" />
            <Array as="points">
              <mxPoint x="628" y="270" />
              <mxPoint x="628" y="375" />
            </Array>
          </mxGeometry>
        </mxCell>
        <mxCell id="hP8luSfTVBdW48-GXIDN-53" value="" style="endArrow=classic;html=1;rounded=0;fontSize=12;startSize=8;endSize=8;exitX=1;exitY=0.75;exitDx=0;exitDy=0;entryX=1;entryY=0.5;entryDx=0;entryDy=0;edgeStyle=orthogonalEdgeStyle;" edge="1" parent="1" source="hP8luSfTVBdW48-GXIDN-33" target="hP8luSfTVBdW48-GXIDN-36">
          <mxGeometry width="50" height="50" relative="1" as="geometry">
            <mxPoint x="305" y="274" as="sourcePoint" />
            <mxPoint x="355" y="224" as="targetPoint" />
            <Array as="points">
              <mxPoint x="628" y="404" />
              <mxPoint x="628" y="526" />
            </Array>
          </mxGeometry>
        </mxCell>
        <mxCell id="hP8luSfTVBdW48-GXIDN-58" value="" style="endArrow=none;dashed=1;html=1;rounded=0;fontSize=12;startSize=8;endSize=8;curved=1;" edge="1" parent="1">
          <mxGeometry width="50" height="50" relative="1" as="geometry">
            <mxPoint x="-90" y="243" as="sourcePoint" />
            <mxPoint x="-90" y="-68" as="targetPoint" />
          </mxGeometry>
        </mxCell>
        <mxCell id="hP8luSfTVBdW48-GXIDN-59" value="" style="endArrow=none;dashed=1;html=1;rounded=0;fontSize=12;startSize=8;endSize=8;curved=1;exitX=1;exitY=0;exitDx=0;exitDy=0;" edge="1" parent="1" source="hP8luSfTVBdW48-GXIDN-2">
          <mxGeometry width="50" height="50" relative="1" as="geometry">
            <mxPoint x="75" y="-65" as="sourcePoint" />
            <mxPoint x="-90" y="-65" as="targetPoint" />
          </mxGeometry>
        </mxCell>
        <mxCell id="hP8luSfTVBdW48-GXIDN-60" value="" style="endArrow=none;dashed=1;html=1;rounded=0;fontSize=12;startSize=8;endSize=8;curved=1;exitX=1;exitY=0;exitDx=0;exitDy=0;" edge="1" parent="1">
          <mxGeometry width="50" height="50" relative="1" as="geometry">
            <mxPoint x="91.5" y="243" as="sourcePoint" />
            <mxPoint x="-90.5" y="243" as="targetPoint" />
          </mxGeometry>
        </mxCell>
        <mxCell id="hP8luSfTVBdW48-GXIDN-61" value="" style="endArrow=none;dashed=1;html=1;rounded=0;fontSize=12;startSize=8;endSize=8;curved=1;" edge="1" parent="1">
          <mxGeometry width="50" height="50" relative="1" as="geometry">
            <mxPoint x="92" y="243" as="sourcePoint" />
            <mxPoint x="92" y="-68" as="targetPoint" />
          </mxGeometry>
        </mxCell>
        <mxCell id="hP8luSfTVBdW48-GXIDN-62" value="" style="endArrow=none;dashed=1;html=1;rounded=0;fontSize=12;startSize=8;endSize=8;curved=1;" edge="1" parent="1">
          <mxGeometry width="50" height="50" relative="1" as="geometry">
            <mxPoint x="161" y="457" as="sourcePoint" />
            <mxPoint x="161" y="-67" as="targetPoint" />
          </mxGeometry>
        </mxCell>
        <mxCell id="hP8luSfTVBdW48-GXIDN-63" value="" style="endArrow=none;dashed=1;html=1;rounded=0;fontSize=12;startSize=8;endSize=8;curved=1;exitX=1;exitY=0;exitDx=0;exitDy=0;" edge="1" parent="1">
          <mxGeometry width="50" height="50" relative="1" as="geometry">
            <mxPoint x="343" y="-66" as="sourcePoint" />
            <mxPoint x="161" y="-66" as="targetPoint" />
          </mxGeometry>
        </mxCell>
        <mxCell id="hP8luSfTVBdW48-GXIDN-64" value="" style="endArrow=none;dashed=1;html=1;rounded=0;fontSize=12;startSize=8;endSize=8;curved=1;" edge="1" parent="1">
          <mxGeometry width="50" height="50" relative="1" as="geometry">
            <mxPoint x="343" y="459" as="sourcePoint" />
            <mxPoint x="343" y="-69" as="targetPoint" />
          </mxGeometry>
        </mxCell>
        <mxCell id="hP8luSfTVBdW48-GXIDN-65" value="" style="endArrow=none;dashed=1;html=1;rounded=0;fontSize=12;startSize=8;endSize=8;curved=1;exitX=1;exitY=0;exitDx=0;exitDy=0;" edge="1" parent="1">
          <mxGeometry width="50" height="50" relative="1" as="geometry">
            <mxPoint x="343" y="462" as="sourcePoint" />
            <mxPoint x="161" y="462" as="targetPoint" />
          </mxGeometry>
        </mxCell>
        <mxCell id="hP8luSfTVBdW48-GXIDN-66" value="" style="endArrow=none;dashed=1;html=1;rounded=0;fontSize=12;startSize=8;endSize=8;curved=1;" edge="1" parent="1">
          <mxGeometry width="50" height="50" relative="1" as="geometry">
            <mxPoint x="412" y="35" as="sourcePoint" />
            <mxPoint x="412" y="-65" as="targetPoint" />
          </mxGeometry>
        </mxCell>
        <mxCell id="hP8luSfTVBdW48-GXIDN-67" value="" style="endArrow=none;dashed=1;html=1;rounded=0;fontSize=12;startSize=8;endSize=8;curved=1;exitX=1;exitY=0;exitDx=0;exitDy=0;" edge="1" parent="1">
          <mxGeometry width="50" height="50" relative="1" as="geometry">
            <mxPoint x="593.5" y="-66" as="sourcePoint" />
            <mxPoint x="411.5" y="-66" as="targetPoint" />
          </mxGeometry>
        </mxCell>
        <mxCell id="hP8luSfTVBdW48-GXIDN-68" value="" style="endArrow=none;dashed=1;html=1;rounded=0;fontSize=12;startSize=8;endSize=8;curved=1;exitX=1;exitY=0;exitDx=0;exitDy=0;" edge="1" parent="1">
          <mxGeometry width="50" height="50" relative="1" as="geometry">
            <mxPoint x="594" y="36" as="sourcePoint" />
            <mxPoint x="412" y="36" as="targetPoint" />
          </mxGeometry>
        </mxCell>
        <mxCell id="hP8luSfTVBdW48-GXIDN-69" value="" style="endArrow=none;dashed=1;html=1;rounded=0;fontSize=12;startSize=8;endSize=8;curved=1;" edge="1" parent="1">
          <mxGeometry width="50" height="50" relative="1" as="geometry">
            <mxPoint x="594" y="37" as="sourcePoint" />
            <mxPoint x="593.5" y="-67" as="targetPoint" />
          </mxGeometry>
        </mxCell>
        <mxCell id="hP8luSfTVBdW48-GXIDN-71" value="" style="endArrow=none;dashed=1;html=1;rounded=0;fontSize=12;startSize=8;endSize=8;curved=1;" edge="1" parent="1">
          <mxGeometry width="50" height="50" relative="1" as="geometry">
            <mxPoint x="412.5" y="165" as="sourcePoint" />
            <mxPoint x="412.5" y="65" as="targetPoint" />
          </mxGeometry>
        </mxCell>
        <mxCell id="hP8luSfTVBdW48-GXIDN-72" value="" style="endArrow=none;dashed=1;html=1;rounded=0;fontSize=12;startSize=8;endSize=8;curved=1;exitX=1;exitY=0;exitDx=0;exitDy=0;" edge="1" parent="1">
          <mxGeometry width="50" height="50" relative="1" as="geometry">
            <mxPoint x="594" y="64" as="sourcePoint" />
            <mxPoint x="412" y="64" as="targetPoint" />
          </mxGeometry>
        </mxCell>
        <mxCell id="hP8luSfTVBdW48-GXIDN-73" value="" style="endArrow=none;dashed=1;html=1;rounded=0;fontSize=12;startSize=8;endSize=8;curved=1;exitX=1;exitY=0;exitDx=0;exitDy=0;" edge="1" parent="1">
          <mxGeometry width="50" height="50" relative="1" as="geometry">
            <mxPoint x="594.5" y="166" as="sourcePoint" />
            <mxPoint x="412.5" y="166" as="targetPoint" />
          </mxGeometry>
        </mxCell>
        <mxCell id="hP8luSfTVBdW48-GXIDN-74" value="" style="endArrow=none;dashed=1;html=1;rounded=0;fontSize=12;startSize=8;endSize=8;curved=1;" edge="1" parent="1">
          <mxGeometry width="50" height="50" relative="1" as="geometry">
            <mxPoint x="594.5" y="167" as="sourcePoint" />
            <mxPoint x="594" y="63" as="targetPoint" />
          </mxGeometry>
        </mxCell>
        <mxCell id="hP8luSfTVBdW48-GXIDN-75" value="" style="endArrow=none;dashed=1;html=1;rounded=0;fontSize=12;startSize=8;endSize=8;curved=1;" edge="1" parent="1">
          <mxGeometry width="50" height="50" relative="1" as="geometry">
            <mxPoint x="413.93" y="297.5" as="sourcePoint" />
            <mxPoint x="413.93" y="197.5" as="targetPoint" />
          </mxGeometry>
        </mxCell>
        <mxCell id="hP8luSfTVBdW48-GXIDN-76" value="" style="endArrow=none;dashed=1;html=1;rounded=0;fontSize=12;startSize=8;endSize=8;curved=1;exitX=1;exitY=0;exitDx=0;exitDy=0;" edge="1" parent="1">
          <mxGeometry width="50" height="50" relative="1" as="geometry">
            <mxPoint x="595.43" y="196.5" as="sourcePoint" />
            <mxPoint x="413.43" y="196.5" as="targetPoint" />
          </mxGeometry>
        </mxCell>
        <mxCell id="hP8luSfTVBdW48-GXIDN-77" value="" style="endArrow=none;dashed=1;html=1;rounded=0;fontSize=12;startSize=8;endSize=8;curved=1;exitX=1;exitY=0;exitDx=0;exitDy=0;" edge="1" parent="1">
          <mxGeometry width="50" height="50" relative="1" as="geometry">
            <mxPoint x="595.93" y="298.5" as="sourcePoint" />
            <mxPoint x="413.93" y="298.5" as="targetPoint" />
          </mxGeometry>
        </mxCell>
        <mxCell id="hP8luSfTVBdW48-GXIDN-78" value="" style="endArrow=none;dashed=1;html=1;rounded=0;fontSize=12;startSize=8;endSize=8;curved=1;" edge="1" parent="1">
          <mxGeometry width="50" height="50" relative="1" as="geometry">
            <mxPoint x="595.93" y="299.5" as="sourcePoint" />
            <mxPoint x="595.43" y="195.5" as="targetPoint" />
          </mxGeometry>
        </mxCell>
        <mxCell id="hP8luSfTVBdW48-GXIDN-79" value="" style="endArrow=none;dashed=1;html=1;rounded=0;fontSize=12;startSize=8;endSize=8;curved=1;" edge="1" parent="1">
          <mxGeometry width="50" height="50" relative="1" as="geometry">
            <mxPoint x="413.93" y="431.5" as="sourcePoint" />
            <mxPoint x="413.93" y="331.5" as="targetPoint" />
          </mxGeometry>
        </mxCell>
        <mxCell id="hP8luSfTVBdW48-GXIDN-80" value="" style="endArrow=none;dashed=1;html=1;rounded=0;fontSize=12;startSize=8;endSize=8;curved=1;exitX=1;exitY=0;exitDx=0;exitDy=0;" edge="1" parent="1">
          <mxGeometry width="50" height="50" relative="1" as="geometry">
            <mxPoint x="595.43" y="330.5" as="sourcePoint" />
            <mxPoint x="413.43" y="330.5" as="targetPoint" />
          </mxGeometry>
        </mxCell>
        <mxCell id="hP8luSfTVBdW48-GXIDN-81" value="" style="endArrow=none;dashed=1;html=1;rounded=0;fontSize=12;startSize=8;endSize=8;curved=1;exitX=1;exitY=0;exitDx=0;exitDy=0;" edge="1" parent="1">
          <mxGeometry width="50" height="50" relative="1" as="geometry">
            <mxPoint x="595.93" y="432.5" as="sourcePoint" />
            <mxPoint x="413.93" y="432.5" as="targetPoint" />
          </mxGeometry>
        </mxCell>
        <mxCell id="hP8luSfTVBdW48-GXIDN-82" value="" style="endArrow=none;dashed=1;html=1;rounded=0;fontSize=12;startSize=8;endSize=8;curved=1;" edge="1" parent="1">
          <mxGeometry width="50" height="50" relative="1" as="geometry">
            <mxPoint x="595.93" y="433.5" as="sourcePoint" />
            <mxPoint x="595.43" y="329.5" as="targetPoint" />
          </mxGeometry>
        </mxCell>
        <mxCell id="hP8luSfTVBdW48-GXIDN-83" value="" style="endArrow=none;dashed=1;html=1;rounded=0;fontSize=12;startSize=8;endSize=8;curved=1;" edge="1" parent="1">
          <mxGeometry width="50" height="50" relative="1" as="geometry">
            <mxPoint x="413.93" y="568" as="sourcePoint" />
            <mxPoint x="413.93" y="468" as="targetPoint" />
          </mxGeometry>
        </mxCell>
        <mxCell id="hP8luSfTVBdW48-GXIDN-84" value="" style="endArrow=none;dashed=1;html=1;rounded=0;fontSize=12;startSize=8;endSize=8;curved=1;exitX=1;exitY=0;exitDx=0;exitDy=0;" edge="1" parent="1">
          <mxGeometry width="50" height="50" relative="1" as="geometry">
            <mxPoint x="595.43" y="467" as="sourcePoint" />
            <mxPoint x="413.43" y="467" as="targetPoint" />
          </mxGeometry>
        </mxCell>
        <mxCell id="hP8luSfTVBdW48-GXIDN-85" value="" style="endArrow=none;dashed=1;html=1;rounded=0;fontSize=12;startSize=8;endSize=8;curved=1;exitX=1;exitY=0;exitDx=0;exitDy=0;" edge="1" parent="1">
          <mxGeometry width="50" height="50" relative="1" as="geometry">
            <mxPoint x="595.93" y="569" as="sourcePoint" />
            <mxPoint x="413.93" y="569" as="targetPoint" />
          </mxGeometry>
        </mxCell>
        <mxCell id="hP8luSfTVBdW48-GXIDN-86" value="" style="endArrow=none;dashed=1;html=1;rounded=0;fontSize=12;startSize=8;endSize=8;curved=1;" edge="1" parent="1">
          <mxGeometry width="50" height="50" relative="1" as="geometry">
            <mxPoint x="595.93" y="570" as="sourcePoint" />
            <mxPoint x="595.43" y="466" as="targetPoint" />
          </mxGeometry>
        </mxCell>
      </root>
    </mxGraphModel>
  </diagram>
</mxfile>
